<svg class="lds-spinner" width="200" height="200" xmlns="http://www.w3.org/2000/svg" viewBox="0 0 100 100" preserveAspectRatio="xMidYMid" style="background:0 0"><rect x="46" y="6" rx="46" ry="6" width="8" height="24" fill="#000DFF"><animate attributeName="opacity" values="1;0" keyTimes="0;1" dur="0.8s" begin="-0.7333333333333334s" repeatCount="indefinite"/></rect><rect x="46" y="6" rx="46" ry="6" width="8" height="24" fill="#000DFF" transform="rotate(30 50 50)"><animate attributeName="opacity" values="1;0" keyTimes="0;1" dur="0.8s" begin="-0.6666666666666666s" repeatCount="indefinite"/></rect><rect x="46" y="6" rx="46" ry="6" width="8" height="24" fill="#000DFF" transform="rotate(60 50 50)"><animate attributeName="opacity" values="1;0" keyTimes="0;1" dur="0.8s" begin="-0.6s" repeatCount="indefinite"/></rect><rect x="46" y="6" rx="46" ry="6" width="8" height="24" fill="#000DFF" transform="rotate(90 50 50)"><animate attributeName="opacity" values="1;0" keyTimes="0;1" dur="0.8s" begin="-0.5333333333333333s" repeatCount="indefinite"/></rect><rect x="46" y="6" rx="46" ry="6" width="8" height="24" fill="#000DFF" transform="rotate(120 50 50)"><animate attributeName="opacity" values="1;0" keyTimes="0;1" dur="0.8s" begin="-0.46666666666666673s" repeatCount="indefinite"/></rect><rect x="46" y="6" rx="46" ry="6" width="8" height="24" fill="#000DFF" transform="rotate(150 50 50)"><animate attributeName="opacity" values="1;0" keyTimes="0;1" dur="0.8s" begin="-0.4000000000000001s" repeatCount="indefinite"/></rect><rect x="46" y="6" rx="46" ry="6" width="8" height="24" fill="#000DFF" transform="rotate(180 50 50)"><animate attributeName="opacity" values="1;0" keyTimes="0;1" dur="0.8s" begin="-0.3333333333333333s" repeatCount="indefinite"/></rect><rect x="46" y="6" rx="46" ry="6" width="8" height="24" fill="#000DFF" transform="rotate(210 50 50)"><animate attributeName="opacity" values="1;0" keyTimes="0;1" dur="0.8s" begin="-0.26666666666666666s" repeatCount="indefinite"/></rect><rect x="46" y="6" rx="46" ry="6" width="8" height="24" fill="#000DFF" transform="rotate(240 50 50)"><animate attributeName="opacity" values="1;0" keyTimes="0;1" dur="0.8s" begin="-0.20000000000000004s" repeatCount="indefinite"/></rect><rect x="46" y="6" rx="46" ry="6" width="8" height="24" fill="#000DFF" transform="rotate(270 50 50)"><animate attributeName="opacity" values="1;0" keyTimes="0;1" dur="0.8s" begin="-0.13333333333333333s" repeatCount="indefinite"/></rect><rect x="46" y="6" rx="46" ry="6" width="8" height="24" fill="#000DFF" transform="rotate(300 50 50)"><animate attributeName="opacity" values="1;0" keyTimes="0;1" dur="0.8s" begin="-0.06666666666666667s" repeatCount="indefinite"/></rect><rect x="46" y="6" rx="46" ry="6" width="8" height="24" fill="#000DFF" transform="rotate(330 50 50)"><animate attributeName="opacity" values="1;0" keyTimes="0;1" dur="0.8s" begin="0s" repeatCount="indefinite"/></rect></svg>